<?xml version="1.0" standalone="no"?><svg xmlns="http://www.w3.org/2000/svg" viewBox="0 0 1440 320"><path fill="#14213D" fill-opacity="1.2" d="M0,128L24,144C48,160,96,192,144,181.3C192,171,240,117,288,96C336,75,384,85,432,74.7C480,64,528,32,576,42.7C624,53,672,107,720,144C768,181,816,203,864,218.7C912,235,960,245,1008,245.3C1056,245,1104,235,1152,234.7C1200,235,1248,245,1296,234.7C1344,224,1392,192,1416,176L1440,160L1440,320L1416,320C1392,320,1344,320,1296,320C1248,320,1200,320,1152,320C1104,320,1056,320,1008,320C960,320,912,320,864,320C816,320,768,320,720,320C672,320,624,320,576,320C528,320,480,320,432,320C384,320,336,320,288,320C240,320,192,320,144,320C96,320,48,320,24,320L0,320Z"></path></svg>